<svg width="2288" height="512" viewBox="0 0 2288 512" fill="none" xmlns="http://www.w3.org/2000/svg">
<path fill-rule="evenodd" clip-rule="evenodd" d="M1264 128H1168C1132.65 128 1104 156.654 1104 192V320C1104 355.346 1132.65 384 1168 384H1264C1299.35 384 1328 355.346 1328 320V304H1264C1264 312.837 1256.84 320 1248 320H1184C1175.16 320 1168 312.837 1168 304V272C1168 263.163 1175.16 256 1184 256H1312C1320.84 256 1328 248.837 1328 240V192C1328 156.654 1299.35 128 1264 128ZM1168 208C1168 216.837 1175.16 224 1184 224H1248C1256.84 224 1264 216.837 1264 208C1264 199.163 1256.84 192 1248 192H1184C1175.16 192 1168 199.163 1168 208Z" fill="#CAA07F"/>
<path fill-rule="evenodd" clip-rule="evenodd" d="M1344 192C1344 156.654 1372.65 128 1408 128H1504C1539.35 128 1568 156.654 1568 192V208H1504C1504 199.163 1496.84 192 1488 192H1424C1415.16 192 1408 199.163 1408 208C1408 216.837 1415.16 224 1424 224H1536C1553.67 224 1568 238.327 1568 256V320C1568 355.346 1539.35 384 1504 384H1408C1372.65 384 1344 355.346 1344 320V304H1408C1408 312.837 1415.16 320 1424 320H1488C1496.84 320 1504 312.837 1504 304C1504 295.163 1496.84 288 1488 288H1376C1358.33 288 1344 273.673 1344 256V192Z" fill="#CAA07F"/>
<path d="M544 128V384H480V128H544Z" fill="#CAA07F"/>
<path d="M480 48C480 56.8366 487.163 64 496 64H528C536.837 64 544 56.8366 544 48V16C544 7.16344 536.837 0 528 0H496C487.163 0 480 7.16344 480 16V48Z" fill="#CAA07F"/>
<path d="M768 128V384H704V128H768Z" fill="#CAA07F"/>
<path d="M704 48C704 56.8366 711.163 64 720 64H752C760.837 64 768 56.8366 768 48V16C768 7.16344 760.837 0 752 0H720C711.163 0 704 7.16344 704 16V48Z" fill="#CAA07F"/>
<path d="M1088 128V384H1024V128H1088Z" fill="#CAA07F"/>
<path d="M1024 48C1024 56.8366 1031.16 64 1040 64H1072C1080.84 64 1088 56.8366 1088 48V16C1088 7.16344 1080.84 0 1072 0H1040C1031.16 0 1024 7.16344 1024 16V48Z" fill="#CAA07F"/>
<path d="M624 0C588.654 0 560 28.6538 560 64V352C560 369.673 574.327 384 592 384H688V320H640C631.163 320 624 312.837 624 304V0Z" fill="#CAA07F"/>
<path d="M64 383.931C28.6538 383.931 0 355.278 0 319.931V128L64 128.031V303.978C64 312.815 71.1634 319.978 80 319.978H144C152.837 319.978 160 312.815 160 303.978V128.078H224V383.931H64Z" fill="#CAA07F"/>
<path d="M1584 368C1584 376.837 1591.16 384 1600 384H1632C1640.84 384 1648 376.837 1648 368V336C1648 327.163 1640.84 320 1632 320H1600C1591.16 320 1584 327.163 1584 336V368Z" fill="#CAA07F"/>
<path fill-rule="evenodd" clip-rule="evenodd" d="M2128 128C2092.65 128 2064 156.654 2064 192V368C2064 376.837 2071.16 384 2080 384H2192C2209.67 384 2224 398.327 2224 416V448H2064C2064 483.346 2092.65 512 2128 512H2288V128H2224V304C2224 312.837 2216.84 320 2208 320H2144C2135.16 320 2128 312.837 2128 304V128Z" fill="#CAA07F"/>
<path d="M1664 383.927V128.027H1824C1843.05 128.027 1848.75 128.027 1862.3 136.823C1877.07 146.418 1882.13 158.869 1888 176.104C1895.48 158.869 1903.98 146.418 1920 136.823C1934.88 127.847 1959.14 127.939 1978.86 128.014C1980.61 128.021 1982.33 128.027 1984 128.027C2019.35 128.027 2048 156.681 2048 192.027V383.927H1984V208.104C1984 199.268 1976.84 192.104 1968 192.104H1904C1895.16 192.104 1888 199.268 1888 208.104V383.927H1824V208.104C1824 199.268 1816.84 192.104 1808 192.104H1744C1735.16 192.104 1728 199.268 1728 208.104V383.927H1664Z" fill="#CAA07F"/>
<path fill-rule="evenodd" clip-rule="evenodd" d="M368 0H304V112C304 120.837 296.837 128 288 128H240V192H304V320C304 355.346 332.654 384 368 384H464V320H384C375.163 320 368 312.837 368 304V208C368 199.163 375.163 192 384 192H464V128H368V0Z" fill="#CAA07F"/>
<path fill-rule="evenodd" clip-rule="evenodd" d="M912 0H848V112C848 120.837 840.837 128 832 128H784V192H848V320C848 355.346 876.654 384 912 384H1008V320H928C919.163 320 912 312.837 912 304V208C912 199.163 919.163 192 928 192H1008V128H912V0Z" fill="#CAA07F"/>
</svg>
